<svg width="13" height="18" viewBox="0 0 13 18" fill="none" xmlns="http://www.w3.org/2000/svg">
<path d="M8.27293 8.1604C8.22139 8.14573 8.1682 8.14282 8.11691 8.15142C7.90732 8.14231 8.07286 8.14839 4.89361 8.14649C4.82201 8.14649 4.75079 8.14839 4.67995 8.15142C4.62879 8.14282 4.57547 8.14573 4.52393 8.16028C1.99774 8.34939 0 10.4579 0 13.0227V16.6474C0 16.843 0.159195 17.0016 0.355479 17.0016H12.4414C12.6377 17.0016 12.7969 16.843 12.7969 16.6474V13.0227C12.7969 10.4578 10.7993 8.3494 8.27294 8.16028L8.27293 8.1604ZM7.55895 8.855L6.39849 10.8495L5.23803 8.855H7.55895ZM12.0858 16.2933H10.3085V14.6108C10.3085 14.4152 10.1493 14.2566 9.953 14.2566C9.75671 14.2566 9.59752 14.4152 9.59752 14.6108V16.2933H3.19902V14.6108C3.19902 14.4152 3.03982 14.2566 2.84354 14.2566C2.64725 14.2566 2.48806 14.4152 2.48806 14.6108V16.2933H0.710725V13.0228C0.710725 10.8804 2.34142 9.11084 4.43094 8.88059L6.09056 11.7334C6.22703 11.9678 6.5684 11.9692 6.70565 11.7334L8.36527 8.88059C10.4549 9.11057 12.0855 10.8803 12.0855 13.0228L12.0858 16.2933Z" fill="white"/>
<path d="M6.39836 7.7922C8.55438 7.7922 10.3084 6.04435 10.3084 3.8961C10.3084 1.74785 8.55428 0 6.39836 0C4.24245 0 2.48835 1.74785 2.48835 3.8961C2.48835 6.04435 4.24245 7.7922 6.39836 7.7922ZM6.39836 0.708235C8.16247 0.708235 9.59755 2.1383 9.59755 3.89604C9.59755 5.65377 8.1625 7.08384 6.39836 7.08384C4.63439 7.08384 3.19918 5.65377 3.19918 3.89604C3.19918 2.1383 4.63436 0.708235 6.39836 0.708235V0.708235Z" fill="white"/>
</svg>
