<svg xmlns="http://www.w3.org/2000/svg" fill="none" viewBox="0 0 24 23"><path fill="#F1F1F1" d="M19.1 4.374C17.2 2.538 14.7 1.5 12.037 1.5c-7.641 0-12.44 8.28-8.624 14.865L2 21.5l5.28-1.377c2.3 1.243 4.183 1.133 4.763 1.206 8.86 0 13.271-10.72 7.044-16.922l.013-.033z"/><path fill="#E6E6E6" fill-rule="evenodd" d="M19.087 4.407c6.227 6.202 1.816 16.922-7.044 16.922-.094-.012-.221-.019-.379-.027-.82-.046-2.456-.137-4.385-1.179L2 21.5l1.413-5.135C-.403 9.779 4.396 1.5 12.037 1.5 14.7 1.5 17.2 2.538 19.1 4.374l-.013.033zm1.16-.23l.024-.062-.476-.46C17.713 1.642 14.965.5 12.037.5 3.777.5-1.476 9.3 2.341 16.493L.576 22.905l6.585-1.717c2.012.993 3.755 1.08 4.477 1.115.125.006.219.01.279.018l.062.008h.064c9.524 0 14.386-11.26 8.204-18.152z" clip-rule="evenodd"/><path fill="#4CAF50" d="M12.056 19.626l-.005-.001h-.014c-2.651 0-4.345-1.256-4.512-1.328l-3.125.812.837-3.037-.199-.313a8.224 8.224 0 01-1.263-4.383c0-7.328 8.954-10.992 14.136-5.813 5.169 5.125 1.54 14.063-5.855 14.063z"/><path fill="#FAFAFA" d="M16.59 13.423l-.008.062c-.251-.125-1.473-.722-1.7-.805-.511-.19-.367-.03-1.348 1.093-.146.163-.29.175-.538.063-.25-.125-1.053-.388-2.003-1.238-.74-.662-1.236-1.475-1.383-1.725-.244-.421.267-.481.732-1.361.083-.175.04-.313-.021-.437-.063-.125-.56-1.35-.768-1.838-.2-.487-.406-.425-.56-.425-.48-.042-.831-.035-1.14.286-1.345 1.479-1.006 3.004.145 4.625 2.261 2.96 3.466 3.505 5.67 4.262.595.19 1.137.163 1.566.1.479-.075 1.473-.6 1.68-1.187.213-.588.213-1.075.15-1.188-.061-.112-.225-.175-.475-.287z"/></svg>